<?xml version="1.0" encoding="UTF-8"?>
<svg xmlns="http://www.w3.org/2000/svg" xmlns:xlink="http://www.w3.org/1999/xlink" width="44pt" height="44pt" viewBox="0 0 44 44" version="1.1">
<g id="surface1">
<path style=" stroke:none;fill-rule:nonzero;fill:rgb(0%,0%,0%);fill-opacity:1;" d="M 43.632812 28.25 L 36.65625 22.992188 L 36.65625 20.878906 C 36.65625 20.585938 36.519531 20.316406 36.289062 20.140625 L 22.554688 9.785156 C 22.226562 9.535156 21.773438 9.535156 21.445312 9.785156 L 7.710938 20.140625 C 7.480469 20.316406 7.34375 20.585938 7.34375 20.878906 L 7.34375 22.992188 L 0.367188 28.25 C 0.136719 28.425781 0 28.699219 0 28.988281 L 0 38.3125 C 0 38.824219 0.414062 39.234375 0.921875 39.234375 L 43.078125 39.234375 C 43.585938 39.234375 44 38.824219 44 38.3125 L 44 28.988281 C 44 28.699219 43.863281 28.425781 43.632812 28.25 Z M 22.996094 37.390625 L 21 37.390625 L 21 32.738281 L 22.996094 32.738281 Z M 24.84375 37.390625 L 24.84375 31.816406 C 24.84375 31.304688 24.429688 30.890625 23.921875 30.890625 L 20.078125 30.890625 C 19.570312 30.890625 19.15625 31.304688 19.15625 31.816406 L 19.15625 37.390625 L 9.191406 37.390625 L 9.191406 21.335938 L 22 11.675781 L 34.808594 21.335938 L 34.808594 37.390625 Z M 1.847656 29.449219 L 7.34375 25.300781 L 7.34375 37.390625 L 1.847656 37.390625 Z M 42.152344 37.390625 L 36.65625 37.390625 L 36.65625 25.300781 L 42.152344 29.449219 Z M 42.152344 37.390625 "/>
<path style=" stroke:none;fill-rule:nonzero;fill:rgb(0%,0%,0%);fill-opacity:1;" d="M 1.480469 22.316406 L 22 6.84375 L 42.519531 22.316406 C 42.6875 22.445312 42.882812 22.503906 43.078125 22.503906 C 43.355469 22.503906 43.632812 22.378906 43.8125 22.136719 C 44.121094 21.730469 44.039062 21.152344 43.632812 20.84375 L 22.554688 4.949219 C 22.226562 4.703125 21.773438 4.703125 21.445312 4.949219 L 0.367188 20.84375 C -0.0390625 21.152344 -0.121094 21.730469 0.1875 22.136719 C 0.492188 22.542969 1.070312 22.625 1.480469 22.316406 Z M 1.480469 22.316406 "/>
</g>
</svg>
