<?xml version="1.0" encoding="UTF-8"?>
<svg xmlns="http://www.w3.org/2000/svg" xmlns:xlink="http://www.w3.org/1999/xlink" width="16pt" height="16pt" viewBox="0 0 16 16" version="1.1">
<g id="surface1">
<path style=" stroke:none;fill-rule:nonzero;fill:rgb(0%,0%,0%);fill-opacity:1;" d="M 15.867188 10.273438 L 13.328125 8.359375 L 13.328125 7.59375 C 13.328125 7.488281 13.28125 7.386719 13.195312 7.324219 L 8.203125 3.558594 C 8.082031 3.46875 7.917969 3.46875 7.796875 3.558594 L 2.804688 7.324219 C 2.71875 7.386719 2.671875 7.488281 2.671875 7.59375 L 2.671875 8.359375 L 0.132812 10.273438 C 0.0507812 10.335938 0 10.4375 0 10.542969 L 0 13.933594 C 0 14.117188 0.148438 14.269531 0.335938 14.269531 L 15.664062 14.269531 C 15.851562 14.269531 16 14.117188 16 13.933594 L 16 10.542969 C 16 10.4375 15.949219 10.335938 15.867188 10.273438 Z M 8.363281 13.597656 L 7.636719 13.597656 L 7.636719 11.90625 L 8.363281 11.90625 Z M 9.035156 13.597656 L 9.035156 11.570312 C 9.035156 11.382812 8.882812 11.234375 8.699219 11.234375 L 7.300781 11.234375 C 7.117188 11.234375 6.964844 11.382812 6.964844 11.570312 L 6.964844 13.597656 L 3.34375 13.597656 L 3.34375 7.757812 L 8 4.246094 L 12.65625 7.757812 L 12.65625 13.597656 Z M 0.671875 10.707031 L 2.671875 9.199219 L 2.671875 13.597656 L 0.671875 13.597656 Z M 15.328125 13.597656 L 13.328125 13.597656 L 13.328125 9.199219 L 15.328125 10.707031 Z M 15.328125 13.597656 "/>
<path style=" stroke:none;fill-rule:nonzero;fill:rgb(0%,0%,0%);fill-opacity:1;" d="M 0.539062 8.117188 L 8 2.488281 L 15.460938 8.117188 C 15.523438 8.160156 15.59375 8.183594 15.664062 8.183594 C 15.765625 8.183594 15.867188 8.136719 15.933594 8.050781 C 16.042969 7.902344 16.015625 7.691406 15.867188 7.578125 L 8.203125 1.800781 C 8.082031 1.710938 7.917969 1.710938 7.796875 1.800781 L 0.132812 7.578125 C -0.015625 7.691406 -0.0429688 7.902344 0.0664062 8.050781 C 0.179688 8.199219 0.390625 8.226562 0.539062 8.117188 Z M 0.539062 8.117188 "/>
</g>
</svg>
