<svg id="visual" viewBox="0 0 900 600" width="900" height="600" xmlns="http://www.w3.org/2000/svg" xmlns:xlink="http://www.w3.org/1999/xlink" version="1.1"><path d="M0 73L16.7 74C33.3 75 66.7 77 100 81C133.3 85 166.7 91 200 88C233.3 85 266.7 73 300 70C333.3 67 366.7 73 400 72C433.3 71 466.7 63 500 64C533.3 65 566.7 75 600 84C633.3 93 666.7 101 700 99C733.3 97 766.7 85 800 77C833.3 69 866.7 65 883.3 63L900 61L900 0L883.3 0C866.7 0 833.3 0 800 0C766.7 0 733.3 0 700 0C666.7 0 633.3 0 600 0C566.7 0 533.3 0 500 0C466.7 0 433.3 0 400 0C366.7 0 333.3 0 300 0C266.7 0 233.3 0 200 0C166.7 0 133.3 0 100 0C66.7 0 33.3 0 16.7 0L0 0Z" fill="#ececec"></path><path d="M0 253L16.7 257C33.3 261 66.7 269 100 278C133.3 287 166.7 297 200 289C233.3 281 266.7 255 300 247C333.3 239 366.7 249 400 248C433.3 247 466.7 235 500 230C533.3 225 566.7 227 600 233C633.3 239 666.7 249 700 249C733.3 249 766.7 239 800 229C833.3 219 866.7 209 883.3 204L900 199L900 59L883.3 61C866.7 63 833.3 67 800 75C766.7 83 733.3 95 700 97C666.7 99 633.3 91 600 82C566.7 73 533.3 63 500 62C466.7 61 433.3 69 400 70C366.7 71 333.3 65 300 68C266.7 71 233.3 83 200 86C166.7 89 133.3 83 100 79C66.7 75 33.3 73 16.7 72L0 71Z" fill="#f3f3f3"></path><path d="M0 319L16.7 325C33.3 331 66.7 343 100 348C133.3 353 166.7 351 200 342C233.3 333 266.7 317 300 313C333.3 309 366.7 317 400 316C433.3 315 466.7 305 500 300C533.3 295 566.7 295 600 298C633.3 301 666.7 307 700 305C733.3 303 766.7 293 800 282C833.3 271 866.7 259 883.3 253L900 247L900 197L883.3 202C866.7 207 833.3 217 800 227C766.7 237 733.3 247 700 247C666.7 247 633.3 237 600 231C566.7 225 533.3 223 500 228C466.7 233 433.3 245 400 246C366.7 247 333.3 237 300 245C266.7 253 233.3 279 200 287C166.7 295 133.3 285 100 276C66.7 267 33.3 259 16.7 255L0 251Z" fill="#fafafa"></path><path d="M0 385L16.7 389C33.3 393 66.7 401 100 408C133.3 415 166.7 421 200 417C233.3 413 266.7 399 300 390C333.3 381 366.7 377 400 376C433.3 375 466.7 377 500 374C533.3 371 566.7 363 600 358C633.3 353 666.7 351 700 353C733.3 355 766.7 361 800 351C833.3 341 866.7 315 883.3 302L900 289L900 245L883.3 251C866.7 257 833.3 269 800 280C766.7 291 733.3 301 700 303C666.7 305 633.3 299 600 296C566.7 293 533.3 293 500 298C466.7 303 433.3 313 400 314C366.7 315 333.3 307 300 311C266.7 315 233.3 331 200 340C166.7 349 133.3 351 100 346C66.7 341 33.3 329 16.7 323L0 317Z" fill="#fdfdfd"></path><path d="M0 445L16.7 452C33.3 459 66.7 473 100 485C133.3 497 166.7 507 200 500C233.3 493 266.7 469 300 462C333.3 455 366.7 465 400 471C433.3 477 466.7 479 500 468C533.3 457 566.7 433 600 423C633.3 413 666.7 417 700 422C733.3 427 766.7 433 800 431C833.3 429 866.7 419 883.3 414L900 409L900 287L883.3 300C866.7 313 833.3 339 800 349C766.7 359 733.3 353 700 351C666.7 349 633.3 351 600 356C566.7 361 533.3 369 500 372C466.7 375 433.3 373 400 374C366.7 375 333.3 379 300 388C266.7 397 233.3 411 200 415C166.7 419 133.3 413 100 406C66.7 399 33.3 391 16.7 387L0 383Z" fill="#fefefe"></path><path d="M0 601L16.7 601C33.3 601 66.7 601 100 601C133.3 601 166.7 601 200 601C233.3 601 266.7 601 300 601C333.3 601 366.7 601 400 601C433.3 601 466.7 601 500 601C533.3 601 566.7 601 600 601C633.3 601 666.7 601 700 601C733.3 601 766.7 601 800 601C833.3 601 866.7 601 883.3 601L900 601L900 407L883.3 412C866.7 417 833.3 427 800 429C766.7 431 733.3 425 700 420C666.7 415 633.3 411 600 421C566.7 431 533.3 455 500 466C466.7 477 433.3 475 400 469C366.7 463 333.3 453 300 460C266.7 467 233.3 491 200 498C166.7 505 133.3 495 100 483C66.7 471 33.3 457 16.7 450L0 443Z" fill="#fefefe"></path></svg>