<svg xmlns="http://www.w3.org/2000/svg" version="1.1" xmlns:xlink="http://www.w3.org/1999/xlink" xmlns:svgjs="http://svgjs.com/svgjs" width="1440" height="560" preserveAspectRatio="none" viewBox="0 0 1440 560"><g mask="url(&quot;#SvgjsMask1300&quot;)" fill="none"><path d="M -247.7206822208796,281 C -103.72,271 184.28,211.2 472.2793177791204,231 C 760.28,250.8 904.28,391 1192.2793177791204,380 C 1480.28,369 1862.74,184.4 1912.2793177791204,176 C 1961.82,167.6 1534.46,305.6 1440,338" stroke="rgba(142, 158, 171, 1)" stroke-width="2"></path><path d="M -765.7139111867529,411 C -621.71,342 -333.71,77.4 -45.71391118675288,66 C 242.29,54.6 386.29,317.2 674.2860888132471,354 C 962.29,390.8 1241.14,254.6 1394.286088813247,250 C 1547.43,245.4 1430.86,314.8 1440,331" stroke="rgba(142, 158, 171, 1)" stroke-width="2"></path><path d="M -666.4812937365059,380 C -522.48,334.8 -234.48,148 53.518706263494096,154 C 341.52,160 485.52,423.2 773.5187062634941,410 C 1061.52,396.8 1360.22,106.6 1493.518706263494,88 C 1626.81,69.4 1450.7,271.2 1440,317" stroke="rgba(142, 158, 171, 1)" stroke-width="2"></path><path d="M -184.99401316264607,153 C -40.99,182.4 247.01,295.2 535.0059868373539,300 C 823.01,304.8 967.01,135.4 1255.005986837354,177 C 1543.01,218.6 1938.01,488.6 1975.005986837354,508 C 2012,527.4 1547,320.8 1440,274" stroke="rgba(142, 158, 171, 1)" stroke-width="2"></path></g><defs><mask id="SvgjsMask1300"><rect width="1440" height="560" fill="#ffffff"></rect></mask></defs></svg>